<svg width="16" height="16" viewBox="0 0 16 16" fill="none" xmlns="http://www.w3.org/2000/svg">
<path d="M15.7397 0.26035C16.0601 0.58078 16.0847 1.08499 15.8136 1.43369L15.7397 1.51743L9.25708 7.99911L15.7397 14.4826C16.0868 14.8297 16.0868 15.3925 15.7397 15.7397C15.4192 16.0601 14.915 16.0847 14.5663 15.8136L14.4826 15.7397L8 9.25619L1.51743 15.7397C1.1703 16.0868 0.607482 16.0868 0.26035 15.7397C-0.0600806 15.4192 -0.0847291 14.915 0.186404 14.5663L0.26035 14.4826L6.74292 7.99911L0.26035 1.51743C-0.0867832 1.1703 -0.0867832 0.607482 0.26035 0.26035C0.58078 -0.0600806 1.08499 -0.0847291 1.43369 0.186404L1.51743 0.26035L8 6.74203L14.4826 0.26035C14.8297 -0.0867832 15.3925 -0.0867832 15.7397 0.26035Z" fill="#818AA1"/>
</svg>
